<svg xmlns="http://www.w3.org/2000/svg" width="66" height="66" viewBox="0 0 66 66">
  <g id="Group_298" data-name="Group 298" transform="translate(-96 -18)">
    <rect id="Rectangle_258" data-name="Rectangle 258" width="66" height="66" rx="1" transform="translate(96 18)" fill="#fff"/>
    <g id="Group_297" data-name="Group 297" transform="translate(-17411.961 12836.398)">
      <rect id="Rectangle_159" data-name="Rectangle 159" width="49.979" height="42.201" transform="translate(17515.971 -12806.5)" fill="#fff" opacity="0"/>
      <g id="Group_196" data-name="Group 196" transform="translate(17524.629 -12800.595)">
        <g id="Group_165" data-name="Group 165" transform="translate(0 0)">
          <circle id="Ellipse_85" data-name="Ellipse 85" cx="4.386" cy="4.386" r="4.386" transform="translate(32.289 19.877)" fill="#1e0d2a"/>
          <path id="Subtraction_40" data-name="Subtraction 40" d="M12.75,28.648h0c-.445-.048-.892-.118-1.327-.207a14.319,14.319,0,0,1-5.148-2.167c-.319-.215-.633-.447-.935-.688l.843-7.62,5.026-1.444a3.818,3.818,0,0,0,.288.36L8.157,22.913l4.592,5.735Zm3.178,0h0L11.135,22.66l2.532-4.575a3.834,3.834,0,0,0,.552.055L16.1,24.69l7.316.809c-.336.274-.687.535-1.043.775a14.319,14.319,0,0,1-5.148,2.167c-.426.087-.863.156-1.3.2ZM3.09,23.342h0c-.248-.309-.485-.63-.705-.956A14.315,14.315,0,0,1,.219,17.237c-.081-.4-.146-.8-.193-1.205L6,11.247l4.56,2.524c-.018.12-.03.242-.036.365L3.9,16.04l-.808,7.3Zm22.544-.1h0L18.028,22.4,16.588,17.4a3.84,3.84,0,0,0,.352-.3L22.9,20.4l5.747-4.6a14.315,14.315,0,0,1-2.385,6.586c-.2.293-.409.582-.629.861Zm-2.985-5.823L18.089,14.9a3.858,3.858,0,0,0,.041-.551l6.476-1.861.811-7.33c.3.363.585.742.846,1.129a14.321,14.321,0,0,1,2.167,5.148c.081.4.146.8.193,1.205l-5.974,4.784h0ZM0,12.871H0A14.315,14.315,0,0,1,2.385,6.285c.2-.293.41-.582.63-.861l7.607.842,1.44,5.009a3.837,3.837,0,0,0-.352.3L5.746,8.27,0,12.871ZM17.328,12h0a3.9,3.9,0,0,0-.3-.343l3.263-5.9L15.678,0a14.313,14.313,0,0,1,6.7,2.4c.267.18.532.373.788.572l-.84,7.592Zm-2.534-1.438h0c-.12-.015-.242-.024-.363-.027l-1.882-6.55L5.231,3.171c.336-.274.687-.535,1.043-.775A14.315,14.315,0,0,1,11.423.23c.365-.075.74-.136,1.112-.182L17.31,6.011l-2.517,4.547Z" fill="#1e0d2a"/>
        </g>
      </g>
    </g>
  </g>
</svg>
