<svg xmlns="http://www.w3.org/2000/svg" xmlns:xlink="http://www.w3.org/1999/xlink" width="213.998" height="195.308" viewBox="0 0 213.998 195.308">
  <defs>
    <clipPath id="clip-path">
      <path id="Path_104" data-name="Path 104" d="M163.166,360.65a73.721,73.721,0,0,0,59.353,79.672c16.209,3.136,33.707,1.358,49.688-2.78,18.6-4.816,39.086-7.057,57.456-12.668,24.959-7.622,40.826-34.97,45.2-60.7,6.55-38.528-12.127-79.946-44.9-101.231s-77.691-21.684-111.269-1.69S167.032,321.762,163.166,360.65Z" transform="translate(-162.817 -246.61)" fill="#ffca5e"/>
    </clipPath>
  </defs>
  <g id="sign_in_illustration" data-name="sign in illustration" transform="translate(6267.317 -2848.709)">
    <g id="Group_1492" data-name="Group 1492" transform="translate(-6267.317 2848.709)">
      <g id="OBJECTS" transform="translate(0 0)">
        <g id="Group_65" data-name="Group 65" transform="translate(0 0)">
          <g id="Group_51" data-name="Group 51">
            <path id="Path_91" data-name="Path 91" d="M163.166,360.65a73.721,73.721,0,0,0,59.353,79.672c16.209,3.136,33.707,1.358,49.688-2.78,18.6-4.816,39.086-7.057,57.456-12.668,24.959-7.622,40.826-34.97,45.2-60.7,6.55-38.528-12.127-79.946-44.9-101.231s-77.691-21.684-111.269-1.69S167.032,321.762,163.166,360.65Z" transform="translate(-162.817 -246.61)" fill="#faffef"/>
            <g id="Group_50" data-name="Group 50" clip-path="url(#clip-path)">
              <g id="Group_43" data-name="Group 43" transform="translate(69.258 23.918)">
                <g id="Group_41" data-name="Group 41" transform="translate(18.047)">
                  <path id="Path_92" data-name="Path 92" d="M230.968,264.962a153.184,153.184,0,0,0,13.9,84.991l22.034-11.87A179.589,179.589,0,0,0,230.968,264.962Z" transform="translate(-229.804 -264.962)" fill="#74cf80"/>
                  <path id="Path_93" data-name="Path 93" d="M236.355,285.645q7.521,22.38,15.039,44.761" transform="translate(-227.817 -258.689)" fill="none" stroke="#36241a" stroke-linecap="round" stroke-linejoin="round" stroke-width="3"/>
                </g>
                <g id="Group_42" data-name="Group 42" transform="translate(0 25.946)">
                  <path id="Path_94" data-name="Path 94" d="M215.973,293.308A109.251,109.251,0,0,0,244.705,360.9l11.976-9.538a160.944,160.944,0,0,0-26.348-63.1C225.781,281.706,215.5,285.343,215.973,293.308Z" transform="translate(-215.957 -284.87)" fill="#6baf73"/>
                  <path id="Path_95" data-name="Path 95" d="M221.985,292.451q6.936,24.793,13.871,49.588" transform="translate(-214.128 -282.57)" fill="none" stroke="#36241a" stroke-linecap="round" stroke-linejoin="round" stroke-width="3"/>
                </g>
              </g>
              <g id="Group_44" data-name="Group 44" transform="translate(68.713 70.576)">
                <path id="Path_96" data-name="Path 96" d="M347.318,417.028c1.339-15.541,2.27-54.065,2.27-54.065s10.948-18.358,6.4-30.131a40.7,40.7,0,0,0-26.664-24.309c-10.528-3.012-20.992-4.749-31.52-7.761a10.067,10.067,0,0,1-6.725,5.293,10.428,10.428,0,0,1-8.449-2.157l-19.6,11.868c-10.26,6.213-19.415,14.043-24.9,24.712-15.509,30.2-18.571,65.175-22.591,98.883,24.546,9.343,51.793,9.006,77.086,1.931C311.5,436.013,331.505,428.6,347.318,417.028Z" transform="translate(-215.539 -300.762)" fill="#d3fd5d"/>
                <path id="Path_97" data-name="Path 97" d="M261.792,309.176a18.825,18.825,0,0,0,29.938-5.359" transform="translate(-201.51 -299.835)" fill="none" stroke="#36241a" stroke-linecap="round" stroke-linejoin="round" stroke-width="1"/>
                <path id="Path_98" data-name="Path 98" d="M248.143,316.728q-.53,17.2-1.06,34.4" transform="translate(-205.972 -295.919)" fill="none" stroke="#36241a" stroke-linecap="round" stroke-linejoin="round" stroke-width="1"/>
              </g>
              <g id="Group_49" data-name="Group 49" transform="translate(-12.695 66.26)">
                <path id="Path_99" data-name="Path 99" d="M263.117,447.706V344.377c-4.412-24.652-26.836-44.9-51.809-46.782s-50.177,14.779-58.233,38.492v93.788Z" transform="translate(-153.076 -297.45)"/>
                <path id="Path_504" data-name="Path 504" d="M0,0H53.4V17.573H0Z" transform="translate(86.844 78.577) rotate(180)" fill="#694d0e"/>
                <g id="Group_1485" data-name="Group 1485" transform="translate(41.968 21.81)">
                  <g id="Group_37" data-name="Group 37" transform="translate(7.059 0)">
                    <path id="Path_28" data-name="Path 28" d="M472.185,244.549l-1.676-2.689h-2.358a3.077,3.077,0,0,0-2.639,1.493l-1.563,2.54,5.546,3.531Z" transform="translate(-463.949 -241.86)" fill="#e6e6e6"/>
                  </g>
                  <g id="Group_38" data-name="Group 38" transform="translate(13.619)">
                    <path id="Path_29" data-name="Path 29" d="M478.927,246.707l-1.94-3.336a2.841,2.841,0,0,0-2.521-1.512h-6.047l4.533,8.572-2.521,1.512,7.5.854,3.59-7.409Z" transform="translate(-468.419 -241.86)" fill="#fff"/>
                  </g>
                  <g id="Group_39" data-name="Group 39" transform="translate(21.178 10.589)">
                    <path id="Path_30" data-name="Path 30" d="M479.621,249.075l-6.052,3.53,2.521,4.539h4.034l1.054-1.7a3.075,3.075,0,0,0,.072-3.111Z" transform="translate(-473.569 -249.075)" fill="#e6e6e6"/>
                  </g>
                  <g id="Group_40" data-name="Group 40" transform="translate(12.605 16.135)">
                    <path id="Path_31" data-name="Path 31" d="M472.771,255.377v-2.523l-5.043,5.548,5.043,6.556v-2.018h4.034a2.745,2.745,0,0,0,2.521-1.512l3.53-6.051Z" transform="translate(-467.728 -252.854)" fill="#fff"/>
                  </g>
                  <g id="Group_41-2" data-name="Group 41" transform="translate(3.814 19.161)">
                    <path id="Path_32" data-name="Path 32" d="M462.967,254.916l-1.228,2.83,1.534,2.658a3.2,3.2,0,0,0,2.719,1.572h2.018v-7.059Z" transform="translate(-461.738 -254.916)" fill="#e6e6e6"/>
                  </g>
                  <g id="Group_42-2" data-name="Group 42" transform="translate(0 8.067)">
                    <path id="Path_33" data-name="Path 33" d="M470.233,253.913l-3.026-6.556-8.067.5,2.884,1.788-1.876,3.759a3.117,3.117,0,0,0,0,3.026l2.806,4.846L464,259.459l3.747-6.5Z" transform="translate(-459.139 -247.357)" fill="#fff"/>
                  </g>
                </g>
              </g>
            </g>
          </g>
          <g id="Group_58" data-name="Group 58" transform="translate(118.21 24.907)">
            <g id="Group_54" data-name="Group 54" transform="translate(1.962)">
              <path id="Path_112" data-name="Path 112" d="M316.627,288.509a8.731,8.731,0,0,0-3.892-4.185,29.605,29.605,0,0,0-14.512-4.53,22.909,22.909,0,0,0-12.252-12.156c-8.144-3.351-18.143-2.122-25.805,2.218a10.157,10.157,0,0,0-3.738,14.007l37.522,15.946c2.656.125,5.516-.413,7.976.6a7.073,7.073,0,0,0,4.134.473,4.708,4.708,0,0,0,3.267-2.442,3.794,3.794,0,0,0-.313-4.092,5.055,5.055,0,0,0,7.613-5.834Z" transform="translate(-255.023 -265.72)" fill="#36241a"/>
              <path id="Path_113" data-name="Path 113" d="M287.976,276.911a27.069,27.069,0,0,1,20.476,5.385" transform="translate(-245.028 -262.415)" fill="none" stroke="#36241a" stroke-linecap="round" stroke-linejoin="round" stroke-width="1"/>
            </g>
            <g id="Group_57" data-name="Group 57" transform="translate(0 12.788)">
              <path id="Path_114" data-name="Path 114" d="M291.615,310.3c-.674-2.659-1.484-5.162-2.158-7.821a8.843,8.843,0,1,0-2.016-17.3c-.489,1.088-1.006,2.329-1.495,3.417-2.378.437-5.122-.885-6.906-2.518a7.99,7.99,0,0,1-2.515-6.533,3.047,3.047,0,0,1-3.906-1.017c-1.422,1.219-3.6.97-5.3.194s-3.175-2.01-4.908-2.713-3.97-.738-5.228.648c-.847,3.926-2.183,7.854-3.03,11.779-1.026,4.758-1.022,9.972,1.611,14.065a15.438,15.438,0,0,0,12.2,6.958c.266,1.659.769,3.4,1.034,5.056,3.136,2.885,7.988,3.33,12.07,2.109S288.186,312.832,291.615,310.3Z" transform="translate(-253.517 -275.533)" fill="#b57961"/>
              <g id="Group_55" data-name="Group 55" transform="translate(1.216 6.308)">
                <circle id="Ellipse_5" data-name="Ellipse 5" cx="1.188" cy="1.188" r="1.188" transform="translate(14.779 8.005)" fill="#36241a"/>
                <circle id="Ellipse_6" data-name="Ellipse 6" cx="1.188" cy="1.188" r="1.188" transform="translate(0 6.426)" fill="#36241a"/>
                <path id="Path_115" data-name="Path 115" d="M255.792,280.373l3.327.215" transform="translate(-254.043 -280.373)" fill="none" stroke="#36241a" stroke-linecap="round" stroke-linejoin="round" stroke-width="1"/>
                <path id="Path_116" data-name="Path 116" d="M265.117,281.63a2.765,2.765,0,0,1,4.559.961" transform="translate(-251.215 -280.242)" fill="none" stroke="#36241a" stroke-linecap="round" stroke-linejoin="round" stroke-width="1"/>
                <path id="Path_117" data-name="Path 117" d="M260.9,286.337l-2.139,5,1.37.031" transform="translate(-253.143 -278.564)" fill="none" stroke="#36241a" stroke-linecap="round" stroke-linejoin="round" stroke-width="1"/>
                <path id="Path_118" data-name="Path 118" d="M261.763,292.063a2.042,2.042,0,0,0,3.755-.386" transform="translate(-252.232 -276.944)" fill="none" stroke="#36241a" stroke-linecap="round" stroke-linejoin="round" stroke-width="1"/>
              </g>
              <g id="Group_56" data-name="Group 56" transform="translate(14.161 15.546)">
                <path id="Path_119" data-name="Path 119" d="M280.7,288.507l4.89-1.046" transform="translate(-259.434 -287.461)" fill="none" stroke="#36241a" stroke-linecap="round" stroke-linejoin="round" stroke-width="1"/>
                <path id="Path_120" data-name="Path 120" d="M264.383,302.069a12.382,12.382,0,0,0,10.162-1.759" transform="translate(-264.383 -283.564)" fill="none" stroke="#36241a" stroke-linecap="round" stroke-linejoin="round" stroke-width="1"/>
              </g>
            </g>
          </g>
          <g id="Group_59" data-name="Group 59" transform="translate(158.762 78.209)">
            <path id="Path_121" data-name="Path 121" d="M284.632,354.737l55.236,13.655c-.115-12.621-.288-25.563-4.839-37.336a40.7,40.7,0,0,0-26.664-24.309C297.837,303.735,284.632,354.737,284.632,354.737Z" transform="translate(-284.632 -306.618)" fill="#d3fd5d"/>
            <path id="Path_122" data-name="Path 122" d="M286.036,354.772l11.507-36.1c1.46-4.578,6.1-7.82,10.869-8.4" transform="translate(-284.206 -305.512)" fill="none" stroke="#36241a" stroke-linecap="round" stroke-linejoin="round" stroke-width="1"/>
          </g>
          <g id="Group_64" data-name="Group 64" transform="translate(20.696 110.859)">
            <path id="Path_123" data-name="Path 123" d="M235.762,373.812c-12.985-7.481-31.2-24.248-31.2-24.248l38.3-.012Z" transform="translate(-170.852 -326.246)" fill="#b57961"/>
            <g id="Group_62" data-name="Group 62" transform="translate(0 14.851)">
              <g id="Group_60" data-name="Group 60" transform="translate(0 5.062)">
                <path id="Path_124" data-name="Path 124" d="M247.038,353.083,178.7,356.9l.056-9.949,67.576.125Z" transform="translate(-178.696 -346.949)" fill="#f0d495"/>
                <path id="Path_125" data-name="Path 125" d="M192.255,352.188l45.787-2.807" transform="translate(-174.584 -346.211)" fill="none" stroke="#36241a" stroke-linecap="round" stroke-linejoin="round" stroke-width="1"/>
              </g>
              <g id="Group_61" data-name="Group 61">
                <path id="Path_126" data-name="Path 126" d="M241.252,350.581,178.7,352.293l.056-9.227,62.121,1.488Z" transform="translate(-178.696 -343.065)" fill="#a7d4f5"/>
                <path id="Path_127" data-name="Path 127" d="M179.413,347.3l39.116-.371" transform="translate(-178.479 -341.892)" fill="#a7d4f5" stroke="#36241a" stroke-linecap="round" stroke-linejoin="round" stroke-width="1"/>
              </g>
            </g>
            <g id="Group_63" data-name="Group 63" transform="translate(26.608)">
              <path id="Path_128" data-name="Path 128" d="M316.421,348.511l-5.982,17.16c-11.37-3.85-23.165-7.751-34.534-11.6-9.16-3.1-16.725-9.364-24.185-15.518-8.2-6.764-21.057-4.713-31.463-6.883-2.141,3.791-4.726,7.281-6.868,11.071-4.475,1.418-9.48,2.72-13.957,4.138-.652.206-.175,1.571.274,2.087a3.7,3.7,0,0,0,1.774.972,19.329,19.329,0,0,0,5.667.851c.99,1.749,3.7,2.139,5.71,2.053l20.483-.882c1.139,2.548,2.373,5.014,3.512,7.56-2.107,6.277-2.242,13.719.564,19.715a75.164,75.164,0,0,0,18.1,8.73c10.107,5.794,23.205,13.361,35.292,18.723,6.112,2.711,12.482,5.315,19.13,6.034a40.009,40.009,0,0,0,19.678-2.588c9.561-4,16.883-12.191,21.812-21.308s7.726-19.2,10.484-29.194Z" transform="translate(-199.112 -331.67)" fill="#b57961"/>
              <path id="Path_129" data-name="Path 129" d="M227.472,351.636q1.615,4.524,3.232,9.049" transform="translate(-190.511 -325.614)" fill="none" stroke="#36241a" stroke-linecap="round" stroke-linejoin="round" stroke-width="1"/>
              <path id="Path_130" data-name="Path 130" d="M206.066,347.795l24.208-7.513" transform="translate(-197.003 -329.058)" fill="none" stroke="#36241a" stroke-linecap="round" stroke-linejoin="round" stroke-width="1"/>
              <path id="Path_131" data-name="Path 131" d="M209.986,341.639q8.2-2.985,16.4-5.973" transform="translate(-195.814 -330.458)" fill="none" stroke="#36241a" stroke-linecap="round" stroke-linejoin="round" stroke-width="1"/>
              <path id="Path_132" data-name="Path 132" d="M216.54,335.2l1.864,1.986" transform="translate(-193.826 -330.598)" fill="none" stroke="#36241a" stroke-linecap="round" stroke-linejoin="round" stroke-width="1"/>
              <path id="Path_133" data-name="Path 133" d="M284.358,357.871l6.679,5.359" transform="translate(-173.257 -323.723)" fill="none" stroke="#36241a" stroke-linecap="round" stroke-linejoin="round" stroke-width="1"/>
            </g>
          </g>
        </g>
      </g>
      <g id="Group_1481" data-name="Group 1481" transform="translate(143.73 95.496)">
        <circle id="Ellipse_37" data-name="Ellipse 37" cx="2.191" cy="2.191" r="2.191" transform="translate(16.128 9.928)" fill="#1e0d2a"/>
        <path id="Subtraction_23" data-name="Subtraction 23" d="M6.369,14.31h0c-.222-.024-.445-.059-.663-.1a7.152,7.152,0,0,1-2.572-1.082c-.159-.107-.316-.223-.467-.344l.421-3.806L5.6,8.253a1.907,1.907,0,0,0,.144.18L4.075,11.445l2.294,2.865Zm1.587,0h0L5.562,11.319,6.827,9.033a1.915,1.915,0,0,0,.276.027l.94,3.271,3.654.4c-.168.137-.343.267-.521.387A7.152,7.152,0,0,1,8.6,14.206c-.213.044-.431.078-.649.1ZM1.544,11.659h0c-.124-.154-.242-.315-.352-.478A7.15,7.15,0,0,1,.109,8.61c-.04-.2-.073-.4-.1-.6L3,5.618,5.274,6.879c-.009.06-.015.121-.018.182l-3.309.951-.4,3.647ZM12.8,11.611h0L9,11.191l-.719-2.5a1.918,1.918,0,0,0,.176-.148L11.44,10.19l2.87-2.3a7.15,7.15,0,0,1-1.192,3.29c-.1.146-.2.291-.314.43ZM11.313,8.7,9.036,7.442a1.927,1.927,0,0,0,.021-.275l3.235-.93L12.7,2.575c.15.181.292.371.423.564A7.153,7.153,0,0,1,14.2,5.711c.04.2.073.4.1.6L11.313,8.7h0ZM0,6.429H0a7.15,7.15,0,0,1,1.191-3.29c.1-.146.2-.291.314-.43l3.8.42.719,2.5a1.916,1.916,0,0,0-.176.148L2.87,4.131,0,6.429Zm8.655-.437h0A1.95,1.95,0,0,0,8.5,5.82l1.63-2.945L7.831,0a7.149,7.149,0,0,1,3.345,1.2c.133.09.266.186.393.286l-.42,3.792ZM7.389,5.273h0c-.06-.007-.121-.012-.181-.014l-.94-3.272-3.655-.4c.168-.137.343-.267.521-.387A7.15,7.15,0,0,1,5.706.115c.182-.037.369-.068.556-.091L8.647,3,7.389,5.273Z" transform="translate(0 0)" fill="#1e0d2a"/>
      </g>
    </g>
  </g>
</svg>
